#!OML:ASF E:\Steps\Project 1\Capture day 1\Session 2\Subject.ASF
:FULLY-SPECIFIED
:DEGREES
463
root 0.220592 17.9145 19.8571 -156.792 -2.78431 180.708
lowerback -23.126 -3.1909 -8.34364
upperback 1.05004 -2.18716 0.790849
thorax 14.6556 -1.7439 4.90976
lowerneck 0.329422 -6.9737 0.0133735
upperneck 25.8267 -7.53108 1.39578
head 7.96855 -2.52786 0.096247
rclavicle -9.14409e-015 1.59028e-015
rhumerus -43.5649 -17.7712 -74.9082
rradius 29.7676
rwrist 0.0850965
rhand -8.57529 -55.7082
rfingers 7.12502
rthumb 17.3552 635.047
lclavicle -9.14409e-015 1.59028e-015
lhumerus -27.8683 -4.5599 80.0418
lradius 26.2582
lwrist 0.255016
lhand -22.7875 -13.2828
lfingers 7.12502
lthumb 3.64832 16.6657
rfemur -33.83 6.21064 2.60223
rtibia 11.9348
rfoot -14.1992 -11.4901
rtoes -39.0077
lfemur -21.5813 -11.7966 -14.5503
ltibia 15.6408
lfoot -14.912 5.85966
ltoes -41.9009
464
root 0.27528 17.9089 19.8211 -156.792 -2.87233 180.698
lowerback -22.7119 -3.22382 -8.40903
upperback 0.764273 -2.29092 0.880301
thorax 14.098 -1.77767 5.02425
lowerneck 0.704262 -7.01031 -0.140881
upperneck 25.7496 -7.53325 1.38685
head 7.88273 -2.53825 0.132005
rclavicle 1.90833e-014 1.35174e-014
rhumerus -44.1691 -17.4138 -74.7013
rradius 29.9928
rwrist -0.0243409
rhand -8.42509 -56.1094
rfingers 7.12502
rthumb 17.4998 634.658
lclavicle 1.90833e-014 1.35174e-014
lhumerus -28.3752 -4.32505 80.0365
lradius 26.3194
lwrist 0.0251638
lhand -22.3523 -13.0589
lfingers 7.12502
lthumb 4.06857 16.882
rfemur -33.7491 6.16468 2.82279
rtibia 11.8826
rfoot -13.6259 -10.7607
rtoes -40.3971
lfemur -21.4668 -11.8929 -14.3248
ltibia 15.6904
lfoot -15.1304 5.93514
ltoes -42.0702
465
root 0.329808 17.9012 19.7871 -156.716 -2.85496 180.746
lowerback -22.8847 -3.19072 -8.32947
upperback 0.794932 -2.25253 0.896013
thorax 14.2245 -1.76036 5.00702
lowerneck 0.745459 -7.04446 -0.10032
upperneck 25.6562 -7.59384 1.3918
head 7.84292 -2.56964 0.124506
rclavicle -2.18663e-014 -2.38542e-014
rhumerus -44.2592 -17.4558 -74.6334
rradius 30.1355
rwrist 0.0516069
rhand -8.08812 -56.4797
rfingers 7.12502
rthumb 17.824 634.317
lclavicle -2.18663e-014 -2.38542e-014
lhumerus -28.2434 -4.18964 79.9573
lradius 26.2873
lwrist -0.185287
lhand -22.1502 -13.1194
lfingers 7.12502
lthumb 4.26372 16.8177
rfemur -33.8461 6.19841 3.09605
rtibia 11.9475
rfoot -13.4528 -9.88782
rtoes -41.1894
lfemur -21.4623 -11.8832 -14.0438
ltibia 15.8018
lfoot -15.3111 6.08018
ltoes -42.5011
466
root 0.385827 17.8947 19.7522 -156.677 -2.88886 180.746
lowerback -23.0375 -3.15728 -8.27728
upperback 0.864815 -2.20028 0.884958
thorax 14.3847 -1.73866 4.97972
lowerneck 0.528082 -6.99121 -0.0422454
upperneck 25.8516 -7.50227 1.33771
head 7.94166 -2.51335 0.095669
rclavicle -1.39149e-014 1.82882e-014
rhumerus -44.2896 -17.5131 -74.6206
rradius 30.224
rwrist 0.0905296
rhand -7.95556 -56.7229
rfingers 7.12502
rthumb 17.9516 634.086
lclavicle -1.39149e-014 1.82882e-014
lhumerus -28.0054 -4.05637 79.8812
lradius 26.0843
lwrist -0.206369
lhand -22.6225 -13.5053
lfingers 7.12502
lthumb 3.80768 16.4404
rfemur -33.8388 6.06526 3.42318
rtibia 11.9502
rfoot -13.169 -9.01974
rtoes -42.6762
lfemur -21.367 -12.0501 -13.7746
ltibia 15.8184
lfoot -15.4393 6.19898
ltoes -42.0743
467
root 0.444662 17.8865 19.7082 -156.674 -2.98887 180.605
lowerback -22.59 -3.19429 -8.38529
upperback 0.569065 -2.29236 0.891315
thorax 13.7945 -1.76547 5.02676
lowerneck 0.443206 -6.96411 -0.0516767
upperneck 26.352 -7.33084 1.07659
head 8.11533 -2.41287 0.0199444
rclavicle -6.55989e-015 6.36111e-015
rhumerus -44.9582 -17.1831 -74.4697
rradius 30.4245
rwrist 0.0600267
rhand -7.85243 -56.96
rfingers 7.12502
rthumb 18.0508 633.858
lclavicle -6.55989e-015 6.36111e-015
lhumerus -28.5585 -4.05325 79.8776
lradius 26.1064
lwrist -0.0736773
lhand -23.1509 -13.4727
lfingers 7.12502
lthumb 3.29735 16.4816
rfemur -33.723 5.72045 3.70839
rtibia 11.992
rfoot -13.4803 -8.00418
rtoes -40.9363
lfemur -21.1369 -12.3917 -13.6575
ltibia 15.7332
lfoot -15.5157 6.34642
ltoes -42.0024
468
root 0.502634 17.875 19.6648 -156.604 -3.05105 180.449
lowerback -23.271 -3.26381 -8.51861
upperback 0.90823 -2.25113 0.883619
thorax 14.5912 -1.7891 5.09347
lowerneck 0.257935 -6.98109 0.0309253
upperneck 26.115 -7.40064 0.959333
head 8.0588 -2.47794 -0.0440676
rclavicle -5.96354e-015 -1.23246e-014
rhumerus -44.4841 -17.3783 -74.5106
rradius 30.3916
rwrist 0.00780255
rhand -7.43806 -57.6654
rfingers 7.12502
rthumb 18.4495 633.189
lclavicle -5.96354e-015 -1.23246e-014
lhumerus -27.977 -4.08823 79.8886
lradius 26.1378
lwrist -0.130831
lhand -23.2418 -13.0159
lfingers 7.12502
lthumb 3.20961 16.9397
rfemur -33.7702 5.31276 4.00734
rtibia 12.2041
rfoot -14.8928 -6.83358
rtoes -33.1189
lfemur -21.0127 -12.5818 -13.5777
ltibia 15.6972
lfoot -15.6585 6.48756
ltoes -42.3889
469
root 0.560107 17.8626 19.6296 -156.451 -3.02227 180.354
lowerback -23.569 -3.23446 -8.47104
upperback 0.958602 -2.18489 0.802447
thorax 14.8062 -1.7611 4.98946
lowerneck 0.431376 -6.96843 0.136745
upperneck 25.8593 -7.42034 1.0257
head 7.93921 -2.48628 -0.0343206
rclavicle 6.95746e-015 1.59028e-014
rhumerus -44.3845 -17.4837 -74.6279
rradius 30.4022
rwrist -0.179306
rhand -8.73052 -56.2558
rfingers 7.12502
rthumb 17.2058 634.486
lclavicle 6.95746e-015 1.59028e-014
lhumerus -27.8502 -4.06357 79.7644
lradius 26.2363
lwrist -0.30093
lhand -23.119 -12.829
lfingers 7.12502
lthumb 3.32819 17.1248
rfemur -33.9877 4.94815 4.36061
rtibia 12.4258
rfoot -14.5812 -6.13085
rtoes -31.7721
lfemur -21.0229 -12.6113 -13.4232
ltibia 15.6953
lfoot -15.9971 6.48265
ltoes -41.4717
470
root 0.6221 17.8511 19.593 -156.338 -3.00708 180.231
lowerback -23.4348 -3.21672 -8.43124
upperback 0.798365 -2.19382 0.723804
thorax 14.5309 -1.74776 4.87492
lowerneck 0.769969 -6.94165 0.227064
upperneck 25.5838 -7.39072 1.04939
head 7.78295 -2.47197 -0.0268711
rclavicle -1.45113e-014 -5.96354e-015
rhumerus -44.6889 -17.3803 -74.7015
rradius 30.5271
rwrist -0.244846
rhand -9.32414 -56.0799
rfingers 7.12502
rthumb 16.6344 634.613
lclavicle -1.45113e-014 -5.96354e-015
lhumerus -28.2099 -4.11086 79.6393
lradius 26.3386
lwrist -0.139713
lhand -23.0762 -13.1609
lfingers 7.12502
lthumb 3.36954 16.7922
rfemur -34.19 4.88512 4.60522
rtibia 12.779
rfoot -14.6716 -5.96676
rtoes -31.2067
lfemur -20.9673 -12.6728 -13.3058
ltibia 15.6608
lfoot -16.2641 6.61199
ltoes -41.3788
471
root 0.686986 17.8413 19.5521 -156.335 -3.13795 180.055
lowerback -23.025 -3.2735 -8.52943
upperback 0.577711 -2.30562 0.741787
thorax 14.0546 -1.78761 4.92179
lowerneck 0.942612 -7.04156 0.259181
upperneck 25.5815 -7.45956 0.794386
head 7.74015 -2.51949 -0.113982
rclavicle -2.68359e-015 7.15625e-015
rhumerus -45.1606 -17.209 -74.4585
rradius 30.5933
rwrist -0.252501
rhand -9.14885 -56.29
rfingers 7.12502
rthumb 16.8031 634.417
lclavicle -2.68359e-015 7.15625e-015
lhumerus -28.6515 -4.04579 79.6265
lradius 26.3013
lwrist -0.080885
lhand -22.8678 -13.8402
lfingers 7.12502
lthumb 3.57078 16.1096
rfemur -34.247 5.15963 4.69793
rtibia 13.2488
rfoot -14.9706 -6.44831
rtoes -31.2386
lfemur -20.8183 -12.701 -13.2703
ltibia 15.6665
lfoot -16.3443 6.87158
ltoes -43.0734
472
root 0.748024 17.8289 19.5098 -156.264 -3.29019 179.899
lowerback -23.2606 -3.34512 -8.52473
upperback 0.652821 -2.37101 0.724992
thorax 14.2888 -1.82554 4.86991
lowerneck 0.63953 -7.08418 0.235991
upperneck 25.9377 -7.48436 0.7199
head 7.91216 -2.52094 -0.147992
rclavicle 2.19657e-014 7.55382e-015
rhumerus -45.1667 -17.1308 -74.5172
rradius 30.7732
rwrist -0.889005
rhand -9.67765 -56.7305
rfingers 7.12502
rthumb 16.294 633.934
lclavicle 2.19657e-014 7.55382e-015
lhumerus -28.5129 -3.8737 79.5494
lradius 26.1931
lwrist -0.225196
lhand -22.8774 -14.4206
lfingers 7.12502
lthumb 3.56153 15.5294
rfemur -34.316 5.35482 4.76045
rtibia 13.5668
rfoot -15.1129 -6.95053
rtoes -30.8879
lfemur -20.7565 -12.9165 -13.154
ltibia 15.6625
lfoot -16.3537 7.14954
ltoes -43.9835
473
root 0.811124 17.8177 19.4718 -156.148 -3.35799 179.786
lowerback -23.2504 -3.36631 -8.51346
upperback 0.587433 -2.41123 0.725135
thorax 14.2102 -1.84013 4.8498
lowerneck 0.250645 -6.96833 0.14392
upperneck 26.5232 -7.27226 0.781988
head 8.18673 -2.38213 -0.112408
rclavicle -1.65985e-014 -1.90833e-014
rhumerus -45.4316 -17.1397 -74.4259
rradius 31.1159
rwrist -0.770971
rhand -9.32343 -57.9073
rfingers 7.12502
rthumb 16.6351 632.786
lclavicle -1.65985e-014 -1.90833e-014
lhumerus -28.6796 -3.90455 79.5787
lradius 26.3284
lwrist -0.14641
lhand -22.9859 -14.4576
lfingers 7.12502
lthumb 3.45669 15.4942
rfemur -34.4762 5.46474 4.90013
rtibia 13.9048
rfoot -15.1025 -7.1466
rtoes -30.4037
lfemur -20.7331 -13.2692 -12.9539
ltibia 15.6391
lfoot -16.3822 7.42121
ltoes -44.1122
